<mxfile host="app.diagrams.net" modified="2022-08-30T06:25:05.747Z" agent="5.0 (Macintosh; Intel Mac OS X 10_15_7) AppleWebKit/537.36 (KHTML, like Gecko) Chrome/104.0.0.0 Safari/537.36" etag="6SukmqiYSPC901TBppV7" version="20.2.7" type="github">
  <diagram id="vV0CVoXvGQLhpZZ3DmrQ" name="Page-1">
    <mxGraphModel dx="1981" dy="608" grid="1" gridSize="10" guides="1" tooltips="1" connect="1" arrows="1" fold="1" page="1" pageScale="1" pageWidth="850" pageHeight="1100" math="0" shadow="0">
      <root>
        <mxCell id="0" />
        <mxCell id="1" parent="0" />
        <mxCell id="FDAyvnMps7sxtgWpFKgP-21" value="" style="edgeStyle=orthogonalEdgeStyle;rounded=0;orthogonalLoop=1;jettySize=auto;html=1;" edge="1" parent="1" source="FDAyvnMps7sxtgWpFKgP-6" target="FDAyvnMps7sxtgWpFKgP-8">
          <mxGeometry relative="1" as="geometry" />
        </mxCell>
        <mxCell id="FDAyvnMps7sxtgWpFKgP-6" value="候选feed" style="rhombus;whiteSpace=wrap;html=1;fillColor=#dae8fc;strokeColor=#6c8ebf;" vertex="1" parent="1">
          <mxGeometry x="-180" y="280" width="80" height="80" as="geometry" />
        </mxCell>
        <mxCell id="FDAyvnMps7sxtgWpFKgP-30" value="" style="edgeStyle=orthogonalEdgeStyle;rounded=0;orthogonalLoop=1;jettySize=auto;html=1;entryX=0;entryY=0.5;entryDx=0;entryDy=0;" edge="1" parent="1" source="FDAyvnMps7sxtgWpFKgP-8" target="FDAyvnMps7sxtgWpFKgP-22">
          <mxGeometry relative="1" as="geometry" />
        </mxCell>
        <mxCell id="FDAyvnMps7sxtgWpFKgP-8" value="每提升1000 vv触发&lt;br&gt;动态送审模型" style="rounded=1;whiteSpace=wrap;html=1;fillColor=#dae8fc;strokeColor=#6c8ebf;" vertex="1" parent="1">
          <mxGeometry x="-60" y="290" width="120" height="60" as="geometry" />
        </mxCell>
        <mxCell id="FDAyvnMps7sxtgWpFKgP-22" value="动态送审模型" style="swimlane;startSize=20;horizontal=0;childLayout=treeLayout;horizontalTree=1;resizable=0;containerType=tree;fillColor=#ffe6cc;strokeColor=#d79b00;" vertex="1" parent="1">
          <mxGeometry x="90" y="200" width="310" height="240" as="geometry" />
        </mxCell>
        <mxCell id="FDAyvnMps7sxtgWpFKgP-23" value="主模型" style="whiteSpace=wrap;html=1;fillColor=#d5e8d4;strokeColor=#82b366;" vertex="1" parent="FDAyvnMps7sxtgWpFKgP-22">
          <mxGeometry x="40" y="100" width="100" height="40" as="geometry" />
        </mxCell>
        <mxCell id="FDAyvnMps7sxtgWpFKgP-24" value="内容特征" style="whiteSpace=wrap;html=1;fillColor=#d5e8d4;strokeColor=#82b366;" vertex="1" parent="FDAyvnMps7sxtgWpFKgP-22">
          <mxGeometry x="190" y="20" width="100" height="40" as="geometry" />
        </mxCell>
        <mxCell id="FDAyvnMps7sxtgWpFKgP-25" value="" style="edgeStyle=elbowEdgeStyle;elbow=horizontal;html=1;rounded=0;" edge="1" parent="FDAyvnMps7sxtgWpFKgP-22" source="FDAyvnMps7sxtgWpFKgP-23" target="FDAyvnMps7sxtgWpFKgP-24">
          <mxGeometry relative="1" as="geometry" />
        </mxCell>
        <mxCell id="FDAyvnMps7sxtgWpFKgP-26" value="行为特征" style="whiteSpace=wrap;html=1;fillColor=#d5e8d4;strokeColor=#82b366;" vertex="1" parent="FDAyvnMps7sxtgWpFKgP-22">
          <mxGeometry x="190" y="100" width="100" height="40" as="geometry" />
        </mxCell>
        <mxCell id="FDAyvnMps7sxtgWpFKgP-27" value="" style="edgeStyle=elbowEdgeStyle;elbow=horizontal;html=1;rounded=0;" edge="1" parent="FDAyvnMps7sxtgWpFKgP-22" source="FDAyvnMps7sxtgWpFKgP-23" target="FDAyvnMps7sxtgWpFKgP-26">
          <mxGeometry relative="1" as="geometry" />
        </mxCell>
        <mxCell id="FDAyvnMps7sxtgWpFKgP-33" value="" style="edgeStyle=elbowEdgeStyle;elbow=horizontal;html=1;rounded=0;" edge="1" target="FDAyvnMps7sxtgWpFKgP-34" source="FDAyvnMps7sxtgWpFKgP-23" parent="FDAyvnMps7sxtgWpFKgP-22">
          <mxGeometry relative="1" as="geometry">
            <mxPoint x="220" y="280" as="sourcePoint" />
          </mxGeometry>
        </mxCell>
        <mxCell id="FDAyvnMps7sxtgWpFKgP-34" value="低质特征" style="whiteSpace=wrap;html=1;fillColor=#d5e8d4;strokeColor=#82b366;" vertex="1" parent="FDAyvnMps7sxtgWpFKgP-22">
          <mxGeometry x="190" y="180" width="100" height="40" as="geometry" />
        </mxCell>
      </root>
    </mxGraphModel>
  </diagram>
</mxfile>
